
<svg xmlns="http://www.w3.org/2000/svg" width="24" height="24" viewBox="0 0 24 24" fill="#8B5CF6" stroke="#000000" stroke-width="1" stroke-linecap="round" stroke-linejoin="round" class="lucide lucide-squirrel">
  <path d="M18 6a4 4 0 0 0-4 4 7 7 0 0 0-7 7c0-5 4-5 4-10.5a4.5 4.5 0 1 0-9 0 2.5 2.5 0 0 0 5 0C7 11 2 11 2 18c0 0 2.5-2 4-2 8.5 0 10.5 2.5 12 2.5s2-1.5 2-1.5a14.5 14.5 0 0 0-5-11.5A4 4 0 0 0 18 6Z"/>
  <path d="M18 10a1 1 0 1 0 0-2 1 1 0 0 0 0 2Z"/>
  <path d="M8.5 10.5 L10 13 L8.5 15.5"/>
</svg>
