
<svg xmlns="http://www.w3.org/2000/svg" width="24" height="24" viewBox="0 0 24 24" fill="none" stroke="#8B5CF6" stroke-width="2" stroke-linecap="round" stroke-linejoin="round" class="lucide lucide-squirrel">
  <path d="M18 6a4 4 0 0 0-4 4 7 7 0 0 0-7 7c0-4 3-5 6-5-2 0-3-2-3-3 0-3 2-5 5-5 2 0 3 1 3 2Z"/>
  <path d="M18 15v3c0 .6-.4 1-1 1h-1a1 1 0 0 1-1-1v-1a2 2 0 0 0-2-2h-3.93a2 2 0 0 0-1.66.9L6 18"/>
  <path d="M12 19h1a2 2 0 0 0 2-2v-1"/>
  <path d="M5 17a1 1 0 1 0 2 0 1 1 0 1 0-2 0Z"/>
</svg>
